<mxfile host="Electron" agent="Mozilla/5.0 (Windows NT 10.0; Win64; x64) AppleWebKit/537.36 (KHTML, like Gecko) draw.io/24.4.7 Chrome/124.0.6367.207 Electron/30.0.6 Safari/537.36" modified="2024-09-22T19:42:17.052Z" etag="kec6pK0cZVGfTfqTZ61G" version="24.4.7" type="device">
  <diagram id="pPmp7qDkxcPNNtQdCRXY" name="Seite-1">
    <mxGraphModel dx="1663" dy="546" grid="1" gridSize="10" guides="1" tooltips="1" connect="1" arrows="1" fold="1" page="1" pageScale="1" pageWidth="827" pageHeight="1169" math="0" shadow="0">
      <root>
        <mxCell id="0" />
        <mxCell id="1" parent="0" />
        <mxCell id="jZRR-mOyk2XYd3pi5lwf-40" value="" style="rounded=0;whiteSpace=wrap;html=1;fillColor=#d80073;strokeColor=#A50040;fontColor=#ffffff;" parent="1" vertex="1">
          <mxGeometry x="870" y="140" width="180" height="440" as="geometry" />
        </mxCell>
        <mxCell id="jZRR-mOyk2XYd3pi5lwf-25" value="P" style="rounded=0;whiteSpace=wrap;html=1;fillColor=#60a917;strokeColor=#2D7600;fontColor=#ffffff;" parent="1" vertex="1">
          <mxGeometry x="-350" y="140" width="1220" height="440" as="geometry" />
        </mxCell>
        <mxCell id="J5CMwq5qaOZ6lLrPTMzF-108" value="" style="rounded=0;whiteSpace=wrap;html=1;align=left;fillColor=#0050ef;strokeColor=#001DBC;fontColor=#ffffff;" parent="1" vertex="1">
          <mxGeometry x="-350" y="580" width="1220" height="120" as="geometry" />
        </mxCell>
        <mxCell id="J5CMwq5qaOZ6lLrPTMzF-2" value="&lt;div&gt;&quot;Type&quot;:&quot;Request&quot;&lt;/div&gt;" style="text;whiteSpace=wrap;html=1;align=center;verticalAlign=middle;" parent="1" vertex="1">
          <mxGeometry x="390" y="151" width="110" height="20" as="geometry" />
        </mxCell>
        <mxCell id="J5CMwq5qaOZ6lLrPTMzF-3" value="" style="endArrow=classic;html=1;exitX=0.5;exitY=1;exitDx=0;exitDy=0;entryX=0.5;entryY=0;entryDx=0;entryDy=0;" parent="1" source="J5CMwq5qaOZ6lLrPTMzF-2" target="J5CMwq5qaOZ6lLrPTMzF-11" edge="1">
          <mxGeometry width="50" height="50" relative="1" as="geometry">
            <mxPoint x="390" y="301" as="sourcePoint" />
            <mxPoint x="444.78999999999996" y="234" as="targetPoint" />
          </mxGeometry>
        </mxCell>
        <mxCell id="J5CMwq5qaOZ6lLrPTMzF-10" value="" style="edgeStyle=orthogonalEdgeStyle;rounded=0;orthogonalLoop=1;jettySize=auto;html=1;exitX=0.5;exitY=1;exitDx=0;exitDy=0;" parent="1" source="J5CMwq5qaOZ6lLrPTMzF-11" target="J5CMwq5qaOZ6lLrPTMzF-8" edge="1">
          <mxGeometry relative="1" as="geometry">
            <mxPoint x="445" y="256" as="sourcePoint" />
          </mxGeometry>
        </mxCell>
        <mxCell id="J5CMwq5qaOZ6lLrPTMzF-35" style="edgeStyle=orthogonalEdgeStyle;rounded=0;orthogonalLoop=1;jettySize=auto;html=1;exitX=0.5;exitY=1;exitDx=0;exitDy=0;" parent="1" source="J5CMwq5qaOZ6lLrPTMzF-7" target="J5CMwq5qaOZ6lLrPTMzF-15" edge="1">
          <mxGeometry relative="1" as="geometry" />
        </mxCell>
        <mxCell id="J5CMwq5qaOZ6lLrPTMzF-7" value="LED" style="text;html=1;strokeColor=none;fillColor=none;align=center;verticalAlign=middle;whiteSpace=wrap;rounded=0;" parent="1" vertex="1">
          <mxGeometry x="-115" y="251" width="40" height="20" as="geometry" />
        </mxCell>
        <mxCell id="J5CMwq5qaOZ6lLrPTMzF-34" style="edgeStyle=orthogonalEdgeStyle;rounded=0;orthogonalLoop=1;jettySize=auto;html=1;exitX=0.5;exitY=1;exitDx=0;exitDy=0;entryX=0.5;entryY=0;entryDx=0;entryDy=0;" parent="1" source="J5CMwq5qaOZ6lLrPTMzF-8" target="J5CMwq5qaOZ6lLrPTMzF-23" edge="1">
          <mxGeometry relative="1" as="geometry" />
        </mxCell>
        <mxCell id="J5CMwq5qaOZ6lLrPTMzF-8" value="&quot;Buzzer&quot;" style="text;html=1;strokeColor=none;fillColor=none;align=center;verticalAlign=middle;whiteSpace=wrap;rounded=0;" parent="1" vertex="1">
          <mxGeometry x="425" y="251" width="40" height="20" as="geometry" />
        </mxCell>
        <mxCell id="J5CMwq5qaOZ6lLrPTMzF-33" style="edgeStyle=orthogonalEdgeStyle;rounded=0;orthogonalLoop=1;jettySize=auto;html=1;exitX=0.5;exitY=1;exitDx=0;exitDy=0;entryX=0.5;entryY=0;entryDx=0;entryDy=0;" parent="1" source="J5CMwq5qaOZ6lLrPTMzF-9" target="J5CMwq5qaOZ6lLrPTMzF-28" edge="1">
          <mxGeometry relative="1" as="geometry" />
        </mxCell>
        <mxCell id="J5CMwq5qaOZ6lLrPTMzF-9" value="&quot;Taster&quot;" style="text;html=1;strokeColor=none;fillColor=none;align=center;verticalAlign=middle;whiteSpace=wrap;rounded=0;" parent="1" vertex="1">
          <mxGeometry x="720" y="251" width="40" height="20" as="geometry" />
        </mxCell>
        <mxCell id="J5CMwq5qaOZ6lLrPTMzF-12" style="edgeStyle=orthogonalEdgeStyle;rounded=0;orthogonalLoop=1;jettySize=auto;html=1;exitX=0.25;exitY=1;exitDx=0;exitDy=0;entryX=0.5;entryY=0;entryDx=0;entryDy=0;" parent="1" source="J5CMwq5qaOZ6lLrPTMzF-11" target="J5CMwq5qaOZ6lLrPTMzF-7" edge="1">
          <mxGeometry relative="1" as="geometry" />
        </mxCell>
        <mxCell id="J5CMwq5qaOZ6lLrPTMzF-13" style="edgeStyle=orthogonalEdgeStyle;rounded=0;orthogonalLoop=1;jettySize=auto;html=1;exitX=0.75;exitY=1;exitDx=0;exitDy=0;entryX=0.5;entryY=0;entryDx=0;entryDy=0;" parent="1" source="J5CMwq5qaOZ6lLrPTMzF-11" target="J5CMwq5qaOZ6lLrPTMzF-9" edge="1">
          <mxGeometry relative="1" as="geometry" />
        </mxCell>
        <mxCell id="J5CMwq5qaOZ6lLrPTMzF-11" value="&quot;IO-Type&quot;:" style="text;html=1;strokeColor=none;fillColor=none;align=center;verticalAlign=middle;whiteSpace=wrap;rounded=0;" parent="1" vertex="1">
          <mxGeometry x="410" y="191" width="70" height="20" as="geometry" />
        </mxCell>
        <mxCell id="J5CMwq5qaOZ6lLrPTMzF-19" style="edgeStyle=orthogonalEdgeStyle;rounded=0;orthogonalLoop=1;jettySize=auto;html=1;exitX=0.25;exitY=1;exitDx=0;exitDy=0;entryX=0.5;entryY=0;entryDx=0;entryDy=0;" parent="1" source="J5CMwq5qaOZ6lLrPTMzF-15" target="J5CMwq5qaOZ6lLrPTMzF-17" edge="1">
          <mxGeometry relative="1" as="geometry" />
        </mxCell>
        <mxCell id="J5CMwq5qaOZ6lLrPTMzF-20" style="edgeStyle=orthogonalEdgeStyle;rounded=0;orthogonalLoop=1;jettySize=auto;html=1;exitX=0.75;exitY=1;exitDx=0;exitDy=0;entryX=0.5;entryY=0;entryDx=0;entryDy=0;" parent="1" source="J5CMwq5qaOZ6lLrPTMzF-15" target="J5CMwq5qaOZ6lLrPTMzF-18" edge="1">
          <mxGeometry relative="1" as="geometry" />
        </mxCell>
        <mxCell id="J5CMwq5qaOZ6lLrPTMzF-15" value="&quot;RequestType&quot;:" style="text;html=1;strokeColor=none;fillColor=none;align=center;verticalAlign=middle;whiteSpace=wrap;rounded=0;" parent="1" vertex="1">
          <mxGeometry x="-120" y="291" width="50" height="20" as="geometry" />
        </mxCell>
        <mxCell id="J5CMwq5qaOZ6lLrPTMzF-41" style="edgeStyle=orthogonalEdgeStyle;rounded=0;orthogonalLoop=1;jettySize=auto;html=1;exitX=0.5;exitY=1;exitDx=0;exitDy=0;entryX=0.5;entryY=0;entryDx=0;entryDy=0;" parent="1" source="J5CMwq5qaOZ6lLrPTMzF-17" target="J5CMwq5qaOZ6lLrPTMzF-36" edge="1">
          <mxGeometry relative="1" as="geometry" />
        </mxCell>
        <mxCell id="J5CMwq5qaOZ6lLrPTMzF-17" value="&quot;Get&quot;" style="text;html=1;strokeColor=none;fillColor=none;align=center;verticalAlign=middle;whiteSpace=wrap;rounded=0;" parent="1" vertex="1">
          <mxGeometry x="-170" y="361" width="40" height="20" as="geometry" />
        </mxCell>
        <mxCell id="J5CMwq5qaOZ6lLrPTMzF-42" style="edgeStyle=orthogonalEdgeStyle;rounded=0;orthogonalLoop=1;jettySize=auto;html=1;exitX=0.5;exitY=1;exitDx=0;exitDy=0;entryX=0.5;entryY=0;entryDx=0;entryDy=0;" parent="1" source="J5CMwq5qaOZ6lLrPTMzF-18" target="J5CMwq5qaOZ6lLrPTMzF-37" edge="1">
          <mxGeometry relative="1" as="geometry" />
        </mxCell>
        <mxCell id="J5CMwq5qaOZ6lLrPTMzF-18" value="&quot;Set&quot;" style="text;html=1;strokeColor=none;fillColor=none;align=center;verticalAlign=middle;whiteSpace=wrap;rounded=0;" parent="1" vertex="1">
          <mxGeometry x="-50" y="361" width="40" height="20" as="geometry" />
        </mxCell>
        <mxCell id="J5CMwq5qaOZ6lLrPTMzF-21" style="edgeStyle=orthogonalEdgeStyle;rounded=0;orthogonalLoop=1;jettySize=auto;html=1;exitX=0.25;exitY=1;exitDx=0;exitDy=0;entryX=0.5;entryY=0;entryDx=0;entryDy=0;" parent="1" source="J5CMwq5qaOZ6lLrPTMzF-23" target="J5CMwq5qaOZ6lLrPTMzF-24" edge="1">
          <mxGeometry relative="1" as="geometry" />
        </mxCell>
        <mxCell id="J5CMwq5qaOZ6lLrPTMzF-22" style="edgeStyle=orthogonalEdgeStyle;rounded=0;orthogonalLoop=1;jettySize=auto;html=1;exitX=0.75;exitY=1;exitDx=0;exitDy=0;entryX=0.5;entryY=0;entryDx=0;entryDy=0;" parent="1" source="J5CMwq5qaOZ6lLrPTMzF-23" target="J5CMwq5qaOZ6lLrPTMzF-25" edge="1">
          <mxGeometry relative="1" as="geometry" />
        </mxCell>
        <mxCell id="J5CMwq5qaOZ6lLrPTMzF-23" value="&quot;RequestType&quot;:" style="text;html=1;strokeColor=none;fillColor=none;align=center;verticalAlign=middle;whiteSpace=wrap;rounded=0;" parent="1" vertex="1">
          <mxGeometry x="425" y="291" width="40" height="20" as="geometry" />
        </mxCell>
        <mxCell id="J5CMwq5qaOZ6lLrPTMzF-43" style="edgeStyle=orthogonalEdgeStyle;rounded=0;orthogonalLoop=1;jettySize=auto;html=1;exitX=0.5;exitY=1;exitDx=0;exitDy=0;entryX=0.5;entryY=0;entryDx=0;entryDy=0;" parent="1" source="J5CMwq5qaOZ6lLrPTMzF-24" target="J5CMwq5qaOZ6lLrPTMzF-38" edge="1">
          <mxGeometry relative="1" as="geometry" />
        </mxCell>
        <mxCell id="J5CMwq5qaOZ6lLrPTMzF-24" value="&quot;Get&quot;" style="text;html=1;strokeColor=none;fillColor=none;align=center;verticalAlign=middle;whiteSpace=wrap;rounded=0;" parent="1" vertex="1">
          <mxGeometry x="157.5" y="361" width="40" height="20" as="geometry" />
        </mxCell>
        <mxCell id="J5CMwq5qaOZ6lLrPTMzF-44" style="edgeStyle=orthogonalEdgeStyle;rounded=0;orthogonalLoop=1;jettySize=auto;html=1;entryX=0.5;entryY=0;entryDx=0;entryDy=0;" parent="1" source="J5CMwq5qaOZ6lLrPTMzF-25" target="J5CMwq5qaOZ6lLrPTMzF-39" edge="1">
          <mxGeometry relative="1" as="geometry" />
        </mxCell>
        <mxCell id="J5CMwq5qaOZ6lLrPTMzF-25" value="&quot;Set&quot;" style="text;html=1;strokeColor=none;fillColor=none;align=center;verticalAlign=middle;whiteSpace=wrap;rounded=0;" parent="1" vertex="1">
          <mxGeometry x="460" y="371" width="40" height="20" as="geometry" />
        </mxCell>
        <mxCell id="J5CMwq5qaOZ6lLrPTMzF-26" style="edgeStyle=orthogonalEdgeStyle;rounded=0;orthogonalLoop=1;jettySize=auto;html=1;exitX=0.25;exitY=1;exitDx=0;exitDy=0;entryX=0.5;entryY=0;entryDx=0;entryDy=0;" parent="1" source="J5CMwq5qaOZ6lLrPTMzF-28" target="J5CMwq5qaOZ6lLrPTMzF-29" edge="1">
          <mxGeometry relative="1" as="geometry" />
        </mxCell>
        <mxCell id="jZRR-mOyk2XYd3pi5lwf-18" style="edgeStyle=orthogonalEdgeStyle;rounded=0;orthogonalLoop=1;jettySize=auto;html=1;exitX=0.75;exitY=1;exitDx=0;exitDy=0;entryX=0.5;entryY=0;entryDx=0;entryDy=0;" parent="1" source="J5CMwq5qaOZ6lLrPTMzF-28" target="jZRR-mOyk2XYd3pi5lwf-8" edge="1">
          <mxGeometry relative="1" as="geometry" />
        </mxCell>
        <mxCell id="J5CMwq5qaOZ6lLrPTMzF-28" value="&quot;RequestType&quot;:" style="text;html=1;strokeColor=none;fillColor=none;align=center;verticalAlign=middle;whiteSpace=wrap;rounded=0;" parent="1" vertex="1">
          <mxGeometry x="723" y="291" width="40" height="20" as="geometry" />
        </mxCell>
        <mxCell id="J5CMwq5qaOZ6lLrPTMzF-45" style="edgeStyle=orthogonalEdgeStyle;rounded=0;orthogonalLoop=1;jettySize=auto;html=1;exitX=0.5;exitY=1;exitDx=0;exitDy=0;entryX=0.5;entryY=0;entryDx=0;entryDy=0;" parent="1" source="J5CMwq5qaOZ6lLrPTMzF-29" target="J5CMwq5qaOZ6lLrPTMzF-40" edge="1">
          <mxGeometry relative="1" as="geometry" />
        </mxCell>
        <mxCell id="J5CMwq5qaOZ6lLrPTMzF-29" value="&quot;Get&quot;" style="text;html=1;strokeColor=none;fillColor=none;align=center;verticalAlign=middle;whiteSpace=wrap;rounded=0;" parent="1" vertex="1">
          <mxGeometry x="653" y="371" width="40" height="20" as="geometry" />
        </mxCell>
        <mxCell id="J5CMwq5qaOZ6lLrPTMzF-73" style="edgeStyle=orthogonalEdgeStyle;rounded=0;orthogonalLoop=1;jettySize=auto;html=1;exitX=0.25;exitY=1;exitDx=0;exitDy=0;entryX=0.5;entryY=0;entryDx=0;entryDy=0;" parent="1" source="J5CMwq5qaOZ6lLrPTMzF-36" target="J5CMwq5qaOZ6lLrPTMzF-68" edge="1">
          <mxGeometry relative="1" as="geometry" />
        </mxCell>
        <mxCell id="J5CMwq5qaOZ6lLrPTMzF-74" style="edgeStyle=orthogonalEdgeStyle;rounded=0;orthogonalLoop=1;jettySize=auto;html=1;exitX=0.75;exitY=1;exitDx=0;exitDy=0;entryX=0.5;entryY=0;entryDx=0;entryDy=0;" parent="1" source="J5CMwq5qaOZ6lLrPTMzF-36" target="3sKsOLn5x2pisdtQAgTS-8" edge="1">
          <mxGeometry relative="1" as="geometry">
            <mxPoint x="-140" y="441" as="targetPoint" />
          </mxGeometry>
        </mxCell>
        <mxCell id="3sKsOLn5x2pisdtQAgTS-5" style="edgeStyle=orthogonalEdgeStyle;rounded=0;orthogonalLoop=1;jettySize=auto;html=1;exitX=0.5;exitY=1;exitDx=0;exitDy=0;entryX=0.5;entryY=0;entryDx=0;entryDy=0;" parent="1" source="J5CMwq5qaOZ6lLrPTMzF-36" target="3sKsOLn5x2pisdtQAgTS-4" edge="1">
          <mxGeometry relative="1" as="geometry" />
        </mxCell>
        <mxCell id="J5CMwq5qaOZ6lLrPTMzF-36" value="&lt;div&gt;&quot;Request&quot;:&lt;/div&gt;" style="text;html=1;strokeColor=none;fillColor=none;align=center;verticalAlign=middle;whiteSpace=wrap;rounded=0;" parent="1" vertex="1">
          <mxGeometry x="-170" y="400" width="40" height="20" as="geometry" />
        </mxCell>
        <mxCell id="J5CMwq5qaOZ6lLrPTMzF-78" style="edgeStyle=orthogonalEdgeStyle;rounded=0;orthogonalLoop=1;jettySize=auto;html=1;exitX=0.5;exitY=1;exitDx=0;exitDy=0;entryX=0.5;entryY=0;entryDx=0;entryDy=0;" parent="1" source="J5CMwq5qaOZ6lLrPTMzF-37" target="3sKsOLn5x2pisdtQAgTS-10" edge="1">
          <mxGeometry relative="1" as="geometry">
            <mxPoint x="-10" y="471" as="targetPoint" />
          </mxGeometry>
        </mxCell>
        <mxCell id="J5CMwq5qaOZ6lLrPTMzF-37" value="&lt;div&gt;&quot;Request&quot;:&lt;/div&gt;" style="text;html=1;strokeColor=none;fillColor=none;align=center;verticalAlign=middle;whiteSpace=wrap;rounded=0;" parent="1" vertex="1">
          <mxGeometry x="-50" y="400" width="40" height="20" as="geometry" />
        </mxCell>
        <mxCell id="J5CMwq5qaOZ6lLrPTMzF-66" style="edgeStyle=orthogonalEdgeStyle;rounded=0;orthogonalLoop=1;jettySize=auto;html=1;exitX=0.75;exitY=1;exitDx=0;exitDy=0;entryX=0.5;entryY=0;entryDx=0;entryDy=0;" parent="1" source="J5CMwq5qaOZ6lLrPTMzF-39" target="J5CMwq5qaOZ6lLrPTMzF-64" edge="1">
          <mxGeometry relative="1" as="geometry" />
        </mxCell>
        <mxCell id="3sKsOLn5x2pisdtQAgTS-14" style="edgeStyle=orthogonalEdgeStyle;rounded=0;orthogonalLoop=1;jettySize=auto;html=1;exitX=0.25;exitY=1;exitDx=0;exitDy=0;entryX=0.5;entryY=0;entryDx=0;entryDy=0;" parent="1" source="J5CMwq5qaOZ6lLrPTMzF-38" target="3sKsOLn5x2pisdtQAgTS-11" edge="1">
          <mxGeometry relative="1" as="geometry" />
        </mxCell>
        <mxCell id="3sKsOLn5x2pisdtQAgTS-21" style="edgeStyle=orthogonalEdgeStyle;rounded=0;orthogonalLoop=1;jettySize=auto;html=1;exitX=0;exitY=1;exitDx=0;exitDy=0;entryX=0.5;entryY=0;entryDx=0;entryDy=0;" parent="1" source="J5CMwq5qaOZ6lLrPTMzF-38" target="3sKsOLn5x2pisdtQAgTS-20" edge="1">
          <mxGeometry relative="1" as="geometry" />
        </mxCell>
        <mxCell id="J5CMwq5qaOZ6lLrPTMzF-38" value="&lt;div&gt;&quot;Request&quot;:&lt;/div&gt;" style="text;html=1;strokeColor=none;fillColor=none;align=center;verticalAlign=middle;whiteSpace=wrap;rounded=0;" parent="1" vertex="1">
          <mxGeometry x="157.5" y="400" width="40" height="20" as="geometry" />
        </mxCell>
        <mxCell id="3sKsOLn5x2pisdtQAgTS-18" style="edgeStyle=orthogonalEdgeStyle;rounded=0;orthogonalLoop=1;jettySize=auto;html=1;exitX=0.25;exitY=1;exitDx=0;exitDy=0;" parent="1" source="J5CMwq5qaOZ6lLrPTMzF-39" target="3sKsOLn5x2pisdtQAgTS-12" edge="1">
          <mxGeometry relative="1" as="geometry" />
        </mxCell>
        <mxCell id="3sKsOLn5x2pisdtQAgTS-25" style="edgeStyle=orthogonalEdgeStyle;rounded=0;orthogonalLoop=1;jettySize=auto;html=1;exitX=0;exitY=1;exitDx=0;exitDy=0;entryX=0.5;entryY=0;entryDx=0;entryDy=0;" parent="1" source="J5CMwq5qaOZ6lLrPTMzF-39" target="3sKsOLn5x2pisdtQAgTS-24" edge="1">
          <mxGeometry relative="1" as="geometry" />
        </mxCell>
        <mxCell id="J5CMwq5qaOZ6lLrPTMzF-39" value="&lt;div&gt;&quot;Request&quot;:&lt;/div&gt;" style="text;html=1;strokeColor=none;fillColor=none;align=center;verticalAlign=middle;whiteSpace=wrap;rounded=0;" parent="1" vertex="1">
          <mxGeometry x="460" y="411" width="40" height="20" as="geometry" />
        </mxCell>
        <mxCell id="J5CMwq5qaOZ6lLrPTMzF-51" style="edgeStyle=orthogonalEdgeStyle;rounded=0;orthogonalLoop=1;jettySize=auto;html=1;exitX=0.25;exitY=1;exitDx=0;exitDy=0;entryX=0.5;entryY=0;entryDx=0;entryDy=0;" parent="1" source="J5CMwq5qaOZ6lLrPTMzF-40" target="J5CMwq5qaOZ6lLrPTMzF-48" edge="1">
          <mxGeometry relative="1" as="geometry" />
        </mxCell>
        <mxCell id="J5CMwq5qaOZ6lLrPTMzF-52" style="edgeStyle=orthogonalEdgeStyle;rounded=0;orthogonalLoop=1;jettySize=auto;html=1;exitX=0.75;exitY=1;exitDx=0;exitDy=0;entryX=0.5;entryY=0;entryDx=0;entryDy=0;" parent="1" source="J5CMwq5qaOZ6lLrPTMzF-40" target="J5CMwq5qaOZ6lLrPTMzF-49" edge="1">
          <mxGeometry relative="1" as="geometry" />
        </mxCell>
        <mxCell id="jZRR-mOyk2XYd3pi5lwf-23" style="edgeStyle=orthogonalEdgeStyle;rounded=0;orthogonalLoop=1;jettySize=auto;html=1;exitX=0.5;exitY=1;exitDx=0;exitDy=0;entryX=0.5;entryY=0;entryDx=0;entryDy=0;" parent="1" source="J5CMwq5qaOZ6lLrPTMzF-40" target="jZRR-mOyk2XYd3pi5lwf-20" edge="1">
          <mxGeometry relative="1" as="geometry" />
        </mxCell>
        <mxCell id="J5CMwq5qaOZ6lLrPTMzF-40" value="&lt;div&gt;&quot;Request&quot;:&lt;/div&gt;" style="text;html=1;strokeColor=none;fillColor=none;align=center;verticalAlign=middle;whiteSpace=wrap;rounded=0;" parent="1" vertex="1">
          <mxGeometry x="653" y="411" width="40" height="20" as="geometry" />
        </mxCell>
        <mxCell id="J5CMwq5qaOZ6lLrPTMzF-102" style="edgeStyle=orthogonalEdgeStyle;rounded=0;orthogonalLoop=1;jettySize=auto;html=1;exitX=0.5;exitY=1;exitDx=0;exitDy=0;entryX=0.25;entryY=0;entryDx=0;entryDy=0;" parent="1" source="J5CMwq5qaOZ6lLrPTMzF-48" target="jZRR-mOyk2XYd3pi5lwf-6" edge="1">
          <mxGeometry relative="1" as="geometry">
            <mxPoint x="642.5" y="600" as="targetPoint" />
          </mxGeometry>
        </mxCell>
        <mxCell id="J5CMwq5qaOZ6lLrPTMzF-48" value="&quot;Amount&quot;" style="text;html=1;align=center;verticalAlign=middle;whiteSpace=wrap;rounded=0;" parent="1" vertex="1">
          <mxGeometry x="580" y="470" width="55" height="19" as="geometry" />
        </mxCell>
        <mxCell id="J5CMwq5qaOZ6lLrPTMzF-53" style="edgeStyle=orthogonalEdgeStyle;rounded=0;orthogonalLoop=1;jettySize=auto;html=1;exitX=0.5;exitY=1;exitDx=0;exitDy=0;" parent="1" source="J5CMwq5qaOZ6lLrPTMzF-49" target="J5CMwq5qaOZ6lLrPTMzF-50" edge="1">
          <mxGeometry relative="1" as="geometry" />
        </mxCell>
        <mxCell id="J5CMwq5qaOZ6lLrPTMzF-49" value="&quot;Pin&quot;" style="text;html=1;align=center;verticalAlign=middle;whiteSpace=wrap;rounded=0;" parent="1" vertex="1">
          <mxGeometry x="722.5" y="470" width="35" height="19" as="geometry" />
        </mxCell>
        <mxCell id="J5CMwq5qaOZ6lLrPTMzF-103" style="edgeStyle=orthogonalEdgeStyle;rounded=0;orthogonalLoop=1;jettySize=auto;html=1;exitX=0.5;exitY=1;exitDx=0;exitDy=0;entryX=0.75;entryY=0;entryDx=0;entryDy=0;" parent="1" source="J5CMwq5qaOZ6lLrPTMzF-50" target="jZRR-mOyk2XYd3pi5lwf-6" edge="1">
          <mxGeometry relative="1" as="geometry">
            <mxPoint x="697.5" y="600" as="targetPoint" />
          </mxGeometry>
        </mxCell>
        <mxCell id="J5CMwq5qaOZ6lLrPTMzF-50" value="ID:x" style="text;html=1;align=center;verticalAlign=middle;whiteSpace=wrap;rounded=0;" parent="1" vertex="1">
          <mxGeometry x="725" y="511" width="40" height="20" as="geometry" />
        </mxCell>
        <mxCell id="J5CMwq5qaOZ6lLrPTMzF-55" style="edgeStyle=orthogonalEdgeStyle;rounded=0;orthogonalLoop=1;jettySize=auto;html=1;exitX=0.5;exitY=1;exitDx=0;exitDy=0;entryX=0.5;entryY=0;entryDx=0;entryDy=0;" parent="1" source="J5CMwq5qaOZ6lLrPTMzF-38" target="J5CMwq5qaOZ6lLrPTMzF-58" edge="1">
          <mxGeometry relative="1" as="geometry">
            <mxPoint x="350.25" y="420" as="sourcePoint" />
            <Array as="points">
              <mxPoint x="178" y="450" />
              <mxPoint x="178" y="450" />
            </Array>
          </mxGeometry>
        </mxCell>
        <mxCell id="J5CMwq5qaOZ6lLrPTMzF-56" style="edgeStyle=orthogonalEdgeStyle;rounded=0;orthogonalLoop=1;jettySize=auto;html=1;entryX=0.5;entryY=0;entryDx=0;entryDy=0;exitX=1;exitY=1;exitDx=0;exitDy=0;" parent="1" source="J5CMwq5qaOZ6lLrPTMzF-38" target="J5CMwq5qaOZ6lLrPTMzF-60" edge="1">
          <mxGeometry relative="1" as="geometry">
            <mxPoint x="370.75" y="420" as="sourcePoint" />
            <Array as="points">
              <mxPoint x="198" y="440" />
              <mxPoint x="310" y="440" />
            </Array>
          </mxGeometry>
        </mxCell>
        <mxCell id="J5CMwq5qaOZ6lLrPTMzF-100" style="edgeStyle=orthogonalEdgeStyle;rounded=0;orthogonalLoop=1;jettySize=auto;html=1;exitX=0.5;exitY=1;exitDx=0;exitDy=0;entryX=0.5;entryY=0;entryDx=0;entryDy=0;" parent="1" source="J5CMwq5qaOZ6lLrPTMzF-58" target="jZRR-mOyk2XYd3pi5lwf-5" edge="1">
          <mxGeometry relative="1" as="geometry">
            <mxPoint x="277.5" y="600" as="targetPoint" />
          </mxGeometry>
        </mxCell>
        <mxCell id="J5CMwq5qaOZ6lLrPTMzF-58" value="&quot;Amount&quot;" style="text;html=1;align=center;verticalAlign=middle;whiteSpace=wrap;rounded=0;" parent="1" vertex="1">
          <mxGeometry x="150" y="470" width="55" height="19" as="geometry" />
        </mxCell>
        <mxCell id="J5CMwq5qaOZ6lLrPTMzF-59" style="edgeStyle=orthogonalEdgeStyle;rounded=0;orthogonalLoop=1;jettySize=auto;html=1;exitX=0.5;exitY=1;exitDx=0;exitDy=0;" parent="1" source="J5CMwq5qaOZ6lLrPTMzF-60" target="J5CMwq5qaOZ6lLrPTMzF-61" edge="1">
          <mxGeometry relative="1" as="geometry" />
        </mxCell>
        <mxCell id="J5CMwq5qaOZ6lLrPTMzF-60" value="&quot;Pin&quot;/&lt;br&gt;LedPin" style="text;html=1;align=center;verticalAlign=middle;whiteSpace=wrap;rounded=0;" parent="1" vertex="1">
          <mxGeometry x="290" y="470" width="40" height="30" as="geometry" />
        </mxCell>
        <mxCell id="J5CMwq5qaOZ6lLrPTMzF-99" style="edgeStyle=orthogonalEdgeStyle;rounded=0;orthogonalLoop=1;jettySize=auto;html=1;exitX=0.5;exitY=1;exitDx=0;exitDy=0;entryX=1;entryY=0;entryDx=0;entryDy=0;" parent="1" source="J5CMwq5qaOZ6lLrPTMzF-61" target="jZRR-mOyk2XYd3pi5lwf-5" edge="1">
          <mxGeometry relative="1" as="geometry">
            <mxPoint x="332.5" y="600" as="targetPoint" />
          </mxGeometry>
        </mxCell>
        <mxCell id="J5CMwq5qaOZ6lLrPTMzF-61" value="ID:x" style="text;html=1;align=center;verticalAlign=middle;whiteSpace=wrap;rounded=0;" parent="1" vertex="1">
          <mxGeometry x="290" y="511" width="40" height="20" as="geometry" />
        </mxCell>
        <mxCell id="J5CMwq5qaOZ6lLrPTMzF-63" style="edgeStyle=orthogonalEdgeStyle;rounded=0;orthogonalLoop=1;jettySize=auto;html=1;exitX=0.5;exitY=1;exitDx=0;exitDy=0;" parent="1" source="J5CMwq5qaOZ6lLrPTMzF-64" target="J5CMwq5qaOZ6lLrPTMzF-65" edge="1">
          <mxGeometry relative="1" as="geometry" />
        </mxCell>
        <mxCell id="J5CMwq5qaOZ6lLrPTMzF-64" value="&quot;InputState&quot;" style="text;html=1;align=center;verticalAlign=middle;whiteSpace=wrap;rounded=0;" parent="1" vertex="1">
          <mxGeometry x="500" y="470" width="67.5" height="20" as="geometry" />
        </mxCell>
        <mxCell id="J5CMwq5qaOZ6lLrPTMzF-101" style="edgeStyle=orthogonalEdgeStyle;rounded=0;orthogonalLoop=1;jettySize=auto;html=1;exitX=0.5;exitY=1;exitDx=0;exitDy=0;entryX=0.5;entryY=0;entryDx=0;entryDy=0;" parent="1" source="J5CMwq5qaOZ6lLrPTMzF-65" target="knhx7R2TwHY9HVWLs4xN-1" edge="1">
          <mxGeometry relative="1" as="geometry" />
        </mxCell>
        <mxCell id="J5CMwq5qaOZ6lLrPTMzF-65" value="ID:x" style="text;html=1;strokeColor=none;fillColor=none;align=center;verticalAlign=middle;whiteSpace=wrap;rounded=0;" parent="1" vertex="1">
          <mxGeometry x="513.75" y="511" width="40" height="20" as="geometry" />
        </mxCell>
        <mxCell id="J5CMwq5qaOZ6lLrPTMzF-106" style="edgeStyle=orthogonalEdgeStyle;rounded=0;orthogonalLoop=1;jettySize=auto;html=1;exitX=0.5;exitY=1;exitDx=0;exitDy=0;entryX=0.25;entryY=0;entryDx=0;entryDy=0;" parent="1" source="J5CMwq5qaOZ6lLrPTMzF-68" target="jZRR-mOyk2XYd3pi5lwf-4" edge="1">
          <mxGeometry relative="1" as="geometry">
            <mxPoint x="-145" y="600" as="targetPoint" />
          </mxGeometry>
        </mxCell>
        <mxCell id="J5CMwq5qaOZ6lLrPTMzF-68" value="&quot;Pin&quot;" style="text;html=1;align=center;verticalAlign=middle;whiteSpace=wrap;rounded=0;" parent="1" vertex="1">
          <mxGeometry x="-205" y="475" width="30" height="19" as="geometry" />
        </mxCell>
        <mxCell id="J5CMwq5qaOZ6lLrPTMzF-80" style="edgeStyle=orthogonalEdgeStyle;rounded=0;orthogonalLoop=1;jettySize=auto;html=1;exitX=0.5;exitY=1;exitDx=0;exitDy=0;entryX=0.5;entryY=0;entryDx=0;entryDy=0;" parent="1" source="3sKsOLn5x2pisdtQAgTS-10" target="J5CMwq5qaOZ6lLrPTMzF-79" edge="1">
          <mxGeometry relative="1" as="geometry">
            <mxPoint x="-10" y="536" as="targetPoint" />
            <mxPoint x="-10" y="531" as="sourcePoint" />
          </mxGeometry>
        </mxCell>
        <mxCell id="J5CMwq5qaOZ6lLrPTMzF-104" style="edgeStyle=orthogonalEdgeStyle;rounded=0;orthogonalLoop=1;jettySize=auto;html=1;exitX=0.5;exitY=1;exitDx=0;exitDy=0;entryX=0.5;entryY=0;entryDx=0;entryDy=0;" parent="1" source="J5CMwq5qaOZ6lLrPTMzF-79" target="J5CMwq5qaOZ6lLrPTMzF-85" edge="1">
          <mxGeometry relative="1" as="geometry" />
        </mxCell>
        <mxCell id="J5CMwq5qaOZ6lLrPTMzF-79" value="Value:x" style="text;html=1;strokeColor=none;fillColor=none;align=center;verticalAlign=middle;whiteSpace=wrap;rounded=0;" parent="1" vertex="1">
          <mxGeometry x="-50" y="550" width="40" height="20" as="geometry" />
        </mxCell>
        <mxCell id="J5CMwq5qaOZ6lLrPTMzF-83" value="Response:" style="text;html=1;strokeColor=none;fillColor=none;align=center;verticalAlign=middle;whiteSpace=wrap;rounded=0;fontSize=21;" parent="1" vertex="1">
          <mxGeometry x="-350" y="580" width="100" height="20" as="geometry" />
        </mxCell>
        <mxCell id="J5CMwq5qaOZ6lLrPTMzF-84" value="Default Set:&lt;br&gt;{&quot;Type&quot;:&quot;Response&quot;,&lt;br&gt;&quot;Success&quot;:true,&lt;br&gt;&quot;Value&quot;:&quot;OK&quot;}" style="text;html=1;strokeColor=none;fillColor=none;align=left;verticalAlign=middle;whiteSpace=wrap;rounded=0;" parent="1" vertex="1">
          <mxGeometry x="390" y="630" width="100" height="60" as="geometry" />
        </mxCell>
        <mxCell id="J5CMwq5qaOZ6lLrPTMzF-85" value="Default Set" style="text;html=1;strokeColor=none;fillColor=none;align=center;verticalAlign=middle;whiteSpace=wrap;rounded=0;" parent="1" vertex="1">
          <mxGeometry x="-50" y="599" width="40" height="20" as="geometry" />
        </mxCell>
        <mxCell id="J5CMwq5qaOZ6lLrPTMzF-86" value="Default Set" style="text;html=1;strokeColor=none;fillColor=none;align=center;verticalAlign=middle;whiteSpace=wrap;rounded=0;" parent="1" vertex="1">
          <mxGeometry x="440" y="599" width="40" height="20" as="geometry" />
        </mxCell>
        <mxCell id="HXyb1h_MBJMQMPyVJZ0P-5" style="edgeStyle=orthogonalEdgeStyle;rounded=0;orthogonalLoop=1;jettySize=auto;html=1;exitX=0.75;exitY=1;exitDx=0;exitDy=0;entryX=0.5;entryY=0;entryDx=0;entryDy=0;" parent="1" source="J5CMwq5qaOZ6lLrPTMzF-38" target="HXyb1h_MBJMQMPyVJZ0P-7" edge="1">
          <mxGeometry relative="1" as="geometry">
            <mxPoint x="245.5" y="420" as="sourcePoint" />
          </mxGeometry>
        </mxCell>
        <mxCell id="HXyb1h_MBJMQMPyVJZ0P-6" style="edgeStyle=orthogonalEdgeStyle;rounded=0;orthogonalLoop=1;jettySize=auto;html=1;exitX=0.5;exitY=1;exitDx=0;exitDy=0;" parent="1" source="HXyb1h_MBJMQMPyVJZ0P-7" target="HXyb1h_MBJMQMPyVJZ0P-8" edge="1">
          <mxGeometry relative="1" as="geometry" />
        </mxCell>
        <mxCell id="HXyb1h_MBJMQMPyVJZ0P-7" value="&quot;State&quot; / &quot;InputState&quot;" style="text;html=1;align=center;verticalAlign=middle;whiteSpace=wrap;rounded=0;" parent="1" vertex="1">
          <mxGeometry x="210" y="471" width="67.25" height="30" as="geometry" />
        </mxCell>
        <mxCell id="HXyb1h_MBJMQMPyVJZ0P-9" style="edgeStyle=orthogonalEdgeStyle;rounded=0;orthogonalLoop=1;jettySize=auto;html=1;exitX=0.5;exitY=1;exitDx=0;exitDy=0;entryX=0.75;entryY=0;entryDx=0;entryDy=0;" parent="1" source="HXyb1h_MBJMQMPyVJZ0P-8" target="jZRR-mOyk2XYd3pi5lwf-5" edge="1">
          <mxGeometry relative="1" as="geometry">
            <mxPoint x="305" y="600" as="targetPoint" />
          </mxGeometry>
        </mxCell>
        <mxCell id="HXyb1h_MBJMQMPyVJZ0P-8" value="ID:x" style="text;html=1;strokeColor=none;fillColor=none;align=center;verticalAlign=middle;whiteSpace=wrap;rounded=0;" parent="1" vertex="1">
          <mxGeometry x="223.63" y="511" width="40" height="20" as="geometry" />
        </mxCell>
        <mxCell id="HXyb1h_MBJMQMPyVJZ0P-10" value="Warning: every key that has the type int has the defauld value of 0. even if the value is not a int" style="text;html=1;align=center;verticalAlign=middle;whiteSpace=wrap;rounded=0;" parent="1" vertex="1">
          <mxGeometry x="-170" y="700" width="270" height="30" as="geometry" />
        </mxCell>
        <mxCell id="knhx7R2TwHY9HVWLs4xN-3" style="edgeStyle=orthogonalEdgeStyle;rounded=0;orthogonalLoop=1;jettySize=auto;html=1;exitX=0.5;exitY=1;exitDx=0;exitDy=0;entryX=0.75;entryY=0;entryDx=0;entryDy=0;" parent="1" source="knhx7R2TwHY9HVWLs4xN-1" target="J5CMwq5qaOZ6lLrPTMzF-86" edge="1">
          <mxGeometry relative="1" as="geometry" />
        </mxCell>
        <mxCell id="knhx7R2TwHY9HVWLs4xN-1" value="Value:x" style="text;html=1;strokeColor=none;fillColor=none;align=center;verticalAlign=middle;whiteSpace=wrap;rounded=0;" parent="1" vertex="1">
          <mxGeometry x="513.75" y="550" width="40" height="20" as="geometry" />
        </mxCell>
        <mxCell id="Bf7gNqehEiRhdHwmw60e-3" style="edgeStyle=orthogonalEdgeStyle;rounded=0;orthogonalLoop=1;jettySize=auto;html=1;exitX=0.5;exitY=1;exitDx=0;exitDy=0;entryX=0.75;entryY=0;entryDx=0;entryDy=0;" parent="1" source="3sKsOLn5x2pisdtQAgTS-8" target="jZRR-mOyk2XYd3pi5lwf-4" edge="1">
          <mxGeometry relative="1" as="geometry">
            <mxPoint x="-10" y="600" as="targetPoint" />
            <mxPoint x="-10" y="570" as="sourcePoint" />
          </mxGeometry>
        </mxCell>
        <mxCell id="jZRR-mOyk2XYd3pi5lwf-1" value="Default Get:&lt;br&gt;{&quot;Type&quot;:&quot;Response&quot;,&lt;br&gt;&quot;Success&quot;:true,&lt;br&gt;&quot;Value&quot;:x}" style="text;html=1;strokeColor=none;fillColor=none;align=left;verticalAlign=middle;whiteSpace=wrap;rounded=0;" parent="1" vertex="1">
          <mxGeometry x="240" y="630" width="100" height="60" as="geometry" />
        </mxCell>
        <mxCell id="jZRR-mOyk2XYd3pi5lwf-4" value="Default Get" style="text;html=1;strokeColor=none;fillColor=none;align=center;verticalAlign=middle;whiteSpace=wrap;rounded=0;" parent="1" vertex="1">
          <mxGeometry x="-170" y="600" width="40" height="20" as="geometry" />
        </mxCell>
        <mxCell id="jZRR-mOyk2XYd3pi5lwf-5" value="Default Get" style="text;html=1;strokeColor=none;fillColor=none;align=center;verticalAlign=middle;whiteSpace=wrap;rounded=0;" parent="1" vertex="1">
          <mxGeometry x="157.5" y="599" width="40" height="20" as="geometry" />
        </mxCell>
        <mxCell id="jZRR-mOyk2XYd3pi5lwf-6" value="Default Get" style="text;html=1;strokeColor=none;fillColor=none;align=center;verticalAlign=middle;whiteSpace=wrap;rounded=0;" parent="1" vertex="1">
          <mxGeometry x="653" y="600" width="40" height="20" as="geometry" />
        </mxCell>
        <mxCell id="jZRR-mOyk2XYd3pi5lwf-7" style="edgeStyle=orthogonalEdgeStyle;rounded=0;orthogonalLoop=1;jettySize=auto;html=1;entryX=0.5;entryY=0;entryDx=0;entryDy=0;" parent="1" source="jZRR-mOyk2XYd3pi5lwf-8" target="jZRR-mOyk2XYd3pi5lwf-10" edge="1">
          <mxGeometry relative="1" as="geometry" />
        </mxCell>
        <mxCell id="jZRR-mOyk2XYd3pi5lwf-8" value="&quot;Set&quot;" style="text;html=1;align=center;verticalAlign=middle;whiteSpace=wrap;rounded=0;" parent="1" vertex="1">
          <mxGeometry x="787" y="371" width="40" height="20" as="geometry" />
        </mxCell>
        <mxCell id="jZRR-mOyk2XYd3pi5lwf-9" style="edgeStyle=orthogonalEdgeStyle;rounded=0;orthogonalLoop=1;jettySize=auto;html=1;exitX=0.5;exitY=1;exitDx=0;exitDy=0;entryX=0.5;entryY=0;entryDx=0;entryDy=0;" parent="1" source="jZRR-mOyk2XYd3pi5lwf-10" target="jZRR-mOyk2XYd3pi5lwf-12" edge="1">
          <mxGeometry relative="1" as="geometry" />
        </mxCell>
        <mxCell id="jZRR-mOyk2XYd3pi5lwf-10" value="&lt;div&gt;&quot;Request&quot;:&lt;/div&gt;" style="text;html=1;strokeColor=none;fillColor=none;align=center;verticalAlign=middle;whiteSpace=wrap;rounded=0;" parent="1" vertex="1">
          <mxGeometry x="787" y="411" width="40" height="20" as="geometry" />
        </mxCell>
        <mxCell id="jZRR-mOyk2XYd3pi5lwf-11" style="edgeStyle=orthogonalEdgeStyle;rounded=0;orthogonalLoop=1;jettySize=auto;html=1;exitX=0.5;exitY=1;exitDx=0;exitDy=0;" parent="1" source="jZRR-mOyk2XYd3pi5lwf-12" target="jZRR-mOyk2XYd3pi5lwf-14" edge="1">
          <mxGeometry relative="1" as="geometry" />
        </mxCell>
        <mxCell id="jZRR-mOyk2XYd3pi5lwf-12" value="&amp;nbsp;&quot;InputState&quot;" style="text;html=1;align=center;verticalAlign=middle;whiteSpace=wrap;rounded=0;" parent="1" vertex="1">
          <mxGeometry x="773.5" y="470" width="67" height="19" as="geometry" />
        </mxCell>
        <mxCell id="jZRR-mOyk2XYd3pi5lwf-13" style="edgeStyle=orthogonalEdgeStyle;rounded=0;orthogonalLoop=1;jettySize=auto;html=1;exitX=0.5;exitY=1;exitDx=0;exitDy=0;entryX=0.5;entryY=0;entryDx=0;entryDy=0;" parent="1" source="jZRR-mOyk2XYd3pi5lwf-14" target="jZRR-mOyk2XYd3pi5lwf-17" edge="1">
          <mxGeometry relative="1" as="geometry" />
        </mxCell>
        <mxCell id="jZRR-mOyk2XYd3pi5lwf-14" value="ID:x" style="text;html=1;strokeColor=none;fillColor=none;align=center;verticalAlign=middle;whiteSpace=wrap;rounded=0;" parent="1" vertex="1">
          <mxGeometry x="787" y="511" width="40" height="20" as="geometry" />
        </mxCell>
        <mxCell id="jZRR-mOyk2XYd3pi5lwf-15" value="Default Set" style="text;html=1;strokeColor=none;fillColor=none;align=center;verticalAlign=middle;whiteSpace=wrap;rounded=0;" parent="1" vertex="1">
          <mxGeometry x="787" y="600" width="40" height="20" as="geometry" />
        </mxCell>
        <mxCell id="jZRR-mOyk2XYd3pi5lwf-16" style="edgeStyle=orthogonalEdgeStyle;rounded=0;orthogonalLoop=1;jettySize=auto;html=1;exitX=0.5;exitY=1;exitDx=0;exitDy=0;entryX=0.5;entryY=0;entryDx=0;entryDy=0;" parent="1" source="jZRR-mOyk2XYd3pi5lwf-17" target="jZRR-mOyk2XYd3pi5lwf-15" edge="1">
          <mxGeometry relative="1" as="geometry" />
        </mxCell>
        <mxCell id="jZRR-mOyk2XYd3pi5lwf-17" value="Value:x" style="text;html=1;strokeColor=none;fillColor=none;align=center;verticalAlign=middle;whiteSpace=wrap;rounded=0;" parent="1" vertex="1">
          <mxGeometry x="787" y="550" width="40" height="20" as="geometry" />
        </mxCell>
        <mxCell id="jZRR-mOyk2XYd3pi5lwf-19" style="edgeStyle=orthogonalEdgeStyle;rounded=0;orthogonalLoop=1;jettySize=auto;html=1;exitX=0.5;exitY=1;exitDx=0;exitDy=0;" parent="1" source="jZRR-mOyk2XYd3pi5lwf-20" target="jZRR-mOyk2XYd3pi5lwf-21" edge="1">
          <mxGeometry relative="1" as="geometry" />
        </mxCell>
        <mxCell id="jZRR-mOyk2XYd3pi5lwf-20" value="&quot;InputState&quot;" style="text;html=1;align=center;verticalAlign=middle;whiteSpace=wrap;rounded=0;" parent="1" vertex="1">
          <mxGeometry x="641.5" y="470" width="63" height="19" as="geometry" />
        </mxCell>
        <mxCell id="jZRR-mOyk2XYd3pi5lwf-24" style="edgeStyle=orthogonalEdgeStyle;rounded=0;orthogonalLoop=1;jettySize=auto;html=1;exitX=0.5;exitY=1;exitDx=0;exitDy=0;entryX=0.5;entryY=0;entryDx=0;entryDy=0;" parent="1" source="jZRR-mOyk2XYd3pi5lwf-21" target="jZRR-mOyk2XYd3pi5lwf-6" edge="1">
          <mxGeometry relative="1" as="geometry" />
        </mxCell>
        <mxCell id="jZRR-mOyk2XYd3pi5lwf-21" value="ID:x" style="text;html=1;strokeColor=none;fillColor=none;align=center;verticalAlign=middle;whiteSpace=wrap;rounded=0;" parent="1" vertex="1">
          <mxGeometry x="653" y="511" width="40" height="20" as="geometry" />
        </mxCell>
        <mxCell id="jZRR-mOyk2XYd3pi5lwf-26" value="&lt;div&gt;&quot;Type&quot;:&quot;Event&quot;&lt;/div&gt;" style="text;whiteSpace=wrap;html=1;align=center;verticalAlign=middle;" parent="1" vertex="1">
          <mxGeometry x="900" y="151" width="110" height="20" as="geometry" />
        </mxCell>
        <mxCell id="jZRR-mOyk2XYd3pi5lwf-27" value="" style="endArrow=classic;html=1;exitX=0.5;exitY=1;exitDx=0;exitDy=0;entryX=0.5;entryY=0;entryDx=0;entryDy=0;" parent="1" source="jZRR-mOyk2XYd3pi5lwf-26" target="jZRR-mOyk2XYd3pi5lwf-28" edge="1">
          <mxGeometry width="50" height="50" relative="1" as="geometry">
            <mxPoint x="900" y="332" as="sourcePoint" />
            <mxPoint x="954.79" y="265" as="targetPoint" />
          </mxGeometry>
        </mxCell>
        <mxCell id="jZRR-mOyk2XYd3pi5lwf-31" style="edgeStyle=orthogonalEdgeStyle;rounded=0;orthogonalLoop=1;jettySize=auto;html=1;exitX=0.25;exitY=1;exitDx=0;exitDy=0;entryX=0.5;entryY=0;entryDx=0;entryDy=0;" parent="1" source="jZRR-mOyk2XYd3pi5lwf-28" target="jZRR-mOyk2XYd3pi5lwf-29" edge="1">
          <mxGeometry relative="1" as="geometry" />
        </mxCell>
        <mxCell id="jZRR-mOyk2XYd3pi5lwf-32" style="edgeStyle=orthogonalEdgeStyle;rounded=0;orthogonalLoop=1;jettySize=auto;html=1;exitX=0.75;exitY=1;exitDx=0;exitDy=0;entryX=0.5;entryY=0;entryDx=0;entryDy=0;" parent="1" source="jZRR-mOyk2XYd3pi5lwf-28" target="jZRR-mOyk2XYd3pi5lwf-30" edge="1">
          <mxGeometry relative="1" as="geometry" />
        </mxCell>
        <mxCell id="jZRR-mOyk2XYd3pi5lwf-28" value="&quot;IO-Type&quot;:" style="text;html=1;strokeColor=none;fillColor=none;align=center;verticalAlign=middle;whiteSpace=wrap;rounded=0;" parent="1" vertex="1">
          <mxGeometry x="920" y="191" width="70" height="20" as="geometry" />
        </mxCell>
        <mxCell id="jZRR-mOyk2XYd3pi5lwf-35" style="edgeStyle=orthogonalEdgeStyle;rounded=0;orthogonalLoop=1;jettySize=auto;html=1;exitX=0.5;exitY=1;exitDx=0;exitDy=0;entryX=0.25;entryY=0;entryDx=0;entryDy=0;" parent="1" source="jZRR-mOyk2XYd3pi5lwf-29" target="jZRR-mOyk2XYd3pi5lwf-33" edge="1">
          <mxGeometry relative="1" as="geometry" />
        </mxCell>
        <mxCell id="jZRR-mOyk2XYd3pi5lwf-29" value="&quot;Buzzer&quot;" style="text;html=1;strokeColor=none;fillColor=none;align=center;verticalAlign=middle;whiteSpace=wrap;rounded=0;" parent="1" vertex="1">
          <mxGeometry x="880" y="251" width="40" height="20" as="geometry" />
        </mxCell>
        <mxCell id="jZRR-mOyk2XYd3pi5lwf-36" style="edgeStyle=orthogonalEdgeStyle;rounded=0;orthogonalLoop=1;jettySize=auto;html=1;exitX=0.5;exitY=1;exitDx=0;exitDy=0;entryX=0.75;entryY=0;entryDx=0;entryDy=0;" parent="1" source="jZRR-mOyk2XYd3pi5lwf-30" target="jZRR-mOyk2XYd3pi5lwf-33" edge="1">
          <mxGeometry relative="1" as="geometry" />
        </mxCell>
        <mxCell id="jZRR-mOyk2XYd3pi5lwf-30" value="&quot;Taster&quot;" style="text;html=1;strokeColor=none;fillColor=none;align=center;verticalAlign=middle;whiteSpace=wrap;rounded=0;" parent="1" vertex="1">
          <mxGeometry x="990" y="251" width="40" height="20" as="geometry" />
        </mxCell>
        <mxCell id="jZRR-mOyk2XYd3pi5lwf-38" style="edgeStyle=orthogonalEdgeStyle;rounded=0;orthogonalLoop=1;jettySize=auto;html=1;exitX=0.5;exitY=1;exitDx=0;exitDy=0;entryX=0.5;entryY=0;entryDx=0;entryDy=0;" parent="1" source="jZRR-mOyk2XYd3pi5lwf-33" target="jZRR-mOyk2XYd3pi5lwf-34" edge="1">
          <mxGeometry relative="1" as="geometry" />
        </mxCell>
        <mxCell id="jZRR-mOyk2XYd3pi5lwf-33" value="ID:x" style="text;html=1;strokeColor=none;fillColor=none;align=center;verticalAlign=middle;whiteSpace=wrap;rounded=0;" parent="1" vertex="1">
          <mxGeometry x="935" y="370" width="40" height="20" as="geometry" />
        </mxCell>
        <mxCell id="jZRR-mOyk2XYd3pi5lwf-39" style="edgeStyle=orthogonalEdgeStyle;rounded=0;orthogonalLoop=1;jettySize=auto;html=1;exitX=0.5;exitY=1;exitDx=0;exitDy=0;entryX=0.5;entryY=0;entryDx=0;entryDy=0;" parent="1" source="jZRR-mOyk2XYd3pi5lwf-34" target="jZRR-mOyk2XYd3pi5lwf-37" edge="1">
          <mxGeometry relative="1" as="geometry" />
        </mxCell>
        <mxCell id="jZRR-mOyk2XYd3pi5lwf-34" value="NewValue:x" style="text;html=1;strokeColor=none;fillColor=none;align=center;verticalAlign=middle;whiteSpace=wrap;rounded=0;" parent="1" vertex="1">
          <mxGeometry x="935" y="411" width="40" height="20" as="geometry" />
        </mxCell>
        <mxCell id="jZRR-mOyk2XYd3pi5lwf-37" value="OldValue:x" style="text;html=1;strokeColor=none;fillColor=none;align=center;verticalAlign=middle;whiteSpace=wrap;rounded=0;" parent="1" vertex="1">
          <mxGeometry x="935" y="451" width="40" height="20" as="geometry" />
        </mxCell>
        <mxCell id="3sKsOLn5x2pisdtQAgTS-6" style="edgeStyle=orthogonalEdgeStyle;rounded=0;orthogonalLoop=1;jettySize=auto;html=1;exitX=0.5;exitY=1;exitDx=0;exitDy=0;entryX=0.5;entryY=0;entryDx=0;entryDy=0;" parent="1" source="3sKsOLn5x2pisdtQAgTS-4" target="jZRR-mOyk2XYd3pi5lwf-4" edge="1">
          <mxGeometry relative="1" as="geometry" />
        </mxCell>
        <mxCell id="3sKsOLn5x2pisdtQAgTS-4" value="&quot;Amount&quot;" style="text;html=1;align=center;verticalAlign=middle;whiteSpace=wrap;rounded=0;" parent="1" vertex="1">
          <mxGeometry x="-175" y="472" width="50" height="19" as="geometry" />
        </mxCell>
        <mxCell id="3sKsOLn5x2pisdtQAgTS-8" value="&quot;LedMode&quot;" style="text;html=1;align=center;verticalAlign=middle;whiteSpace=wrap;rounded=0;" parent="1" vertex="1">
          <mxGeometry x="-125" y="472" width="60" height="19" as="geometry" />
        </mxCell>
        <mxCell id="3sKsOLn5x2pisdtQAgTS-10" value="&quot;LedMode&quot;" style="text;html=1;align=center;verticalAlign=middle;whiteSpace=wrap;rounded=0;" parent="1" vertex="1">
          <mxGeometry x="-60" y="471" width="60" height="20" as="geometry" />
        </mxCell>
        <mxCell id="3sKsOLn5x2pisdtQAgTS-15" style="edgeStyle=orthogonalEdgeStyle;rounded=0;orthogonalLoop=1;jettySize=auto;html=1;exitX=0.5;exitY=1;exitDx=0;exitDy=0;entryX=0.25;entryY=0;entryDx=0;entryDy=0;" parent="1" source="3sKsOLn5x2pisdtQAgTS-11" target="jZRR-mOyk2XYd3pi5lwf-5" edge="1">
          <mxGeometry relative="1" as="geometry" />
        </mxCell>
        <mxCell id="3sKsOLn5x2pisdtQAgTS-11" value="&quot;LedMode&quot;" style="text;html=1;align=center;verticalAlign=middle;whiteSpace=wrap;rounded=0;" parent="1" vertex="1">
          <mxGeometry x="80" y="470" width="65" height="19" as="geometry" />
        </mxCell>
        <mxCell id="3sKsOLn5x2pisdtQAgTS-17" style="edgeStyle=orthogonalEdgeStyle;rounded=0;orthogonalLoop=1;jettySize=auto;html=1;exitX=0.5;exitY=1;exitDx=0;exitDy=0;entryX=0.75;entryY=0;entryDx=0;entryDy=0;" parent="1" source="3sKsOLn5x2pisdtQAgTS-12" target="3sKsOLn5x2pisdtQAgTS-16" edge="1">
          <mxGeometry relative="1" as="geometry" />
        </mxCell>
        <mxCell id="3sKsOLn5x2pisdtQAgTS-12" value="&quot;LedMode&quot;" style="text;html=1;align=center;verticalAlign=middle;whiteSpace=wrap;rounded=0;" parent="1" vertex="1">
          <mxGeometry x="425" y="470" width="65" height="20" as="geometry" />
        </mxCell>
        <mxCell id="3sKsOLn5x2pisdtQAgTS-19" style="edgeStyle=orthogonalEdgeStyle;rounded=0;orthogonalLoop=1;jettySize=auto;html=1;exitX=0.5;exitY=1;exitDx=0;exitDy=0;entryX=0.25;entryY=0;entryDx=0;entryDy=0;" parent="1" source="3sKsOLn5x2pisdtQAgTS-16" target="J5CMwq5qaOZ6lLrPTMzF-86" edge="1">
          <mxGeometry relative="1" as="geometry" />
        </mxCell>
        <mxCell id="3sKsOLn5x2pisdtQAgTS-16" value="Value:x" style="text;html=1;strokeColor=none;fillColor=none;align=center;verticalAlign=middle;whiteSpace=wrap;rounded=0;" parent="1" vertex="1">
          <mxGeometry x="400" y="531" width="40" height="20" as="geometry" />
        </mxCell>
        <mxCell id="3sKsOLn5x2pisdtQAgTS-22" style="edgeStyle=orthogonalEdgeStyle;rounded=0;orthogonalLoop=1;jettySize=auto;html=1;exitX=0.5;exitY=1;exitDx=0;exitDy=0;entryX=0;entryY=0;entryDx=0;entryDy=0;" parent="1" source="3sKsOLn5x2pisdtQAgTS-20" target="jZRR-mOyk2XYd3pi5lwf-5" edge="1">
          <mxGeometry relative="1" as="geometry">
            <mxPoint x="150" y="550" as="targetPoint" />
          </mxGeometry>
        </mxCell>
        <mxCell id="3sKsOLn5x2pisdtQAgTS-20" value="&quot;isDisabeled&quot;" style="text;html=1;align=center;verticalAlign=middle;whiteSpace=wrap;rounded=0;" parent="1" vertex="1">
          <mxGeometry x="10" y="469" width="70" height="20" as="geometry" />
        </mxCell>
        <mxCell id="3sKsOLn5x2pisdtQAgTS-26" style="edgeStyle=orthogonalEdgeStyle;rounded=0;orthogonalLoop=1;jettySize=auto;html=1;exitX=0.5;exitY=1;exitDx=0;exitDy=0;entryX=0.25;entryY=0;entryDx=0;entryDy=0;" parent="1" source="3sKsOLn5x2pisdtQAgTS-24" target="3sKsOLn5x2pisdtQAgTS-16" edge="1">
          <mxGeometry relative="1" as="geometry" />
        </mxCell>
        <mxCell id="3sKsOLn5x2pisdtQAgTS-24" value="&quot;isDisabeled&quot;" style="text;html=1;align=center;verticalAlign=middle;whiteSpace=wrap;rounded=0;" parent="1" vertex="1">
          <mxGeometry x="344" y="471" width="70" height="20" as="geometry" />
        </mxCell>
      </root>
    </mxGraphModel>
  </diagram>
</mxfile>
